<?xml version="1.0" standalone="no"?>
<!DOCTYPE svg PUBLIC "-//W3C//DTD SVG 20010904//EN"
 "http://www.w3.org/TR/2001/REC-SVG-20010904/DTD/svg10.dtd">
<svg version="1.0" xmlns="http://www.w3.org/2000/svg"
 width="757.000000pt" height="330.000000pt" viewBox="0 0 757.000000 330.000000"
 preserveAspectRatio="xMidYMid meet">

<g transform="translate(0.000000,330.000000) scale(0.100000,-0.100000)"
fill="#000000" stroke="none">
<path d="M100 3100 c0 -22 64 -137 109 -195 175 -227 454 -429 1141 -824 184
-106 236 -139 200 -127 -101 33 -284 89 -496 150 -238 68 -541 164 -589 186
-95 43 -258 123 -293 145 l-44 27 15 -29 c42 -81 161 -194 303 -288 79 -52
410 -220 489 -248 22 -8 96 -37 165 -64 69 -28 175 -69 235 -91 196 -72 316
-126 244 -108 -44 10 -439 65 -550 76 -265 27 -558 84 -691 135 -21 8 -38 13
-38 10 0 -8 66 -72 100 -97 170 -121 375 -187 995 -319 180 -38 320 -73 364
-91 63 -25 -990 -31 -1111 -5 -38 7 -68 13 -68 11 0 -1 22 -18 49 -37 130 -94
354 -134 882 -157 229 -10 341 -21 414 -42 38 -11 34 -12 -100 -29 -77 -10
-248 -41 -380 -69 -178 -38 -271 -53 -358 -57 -65 -3 -114 -9 -110 -13 22 -20
158 -40 343 -50 326 -17 543 -45 680 -87 l85 -27 -45 -9 c-25 -5 -97 -19 -160
-32 -155 -32 -391 -58 -467 -52 -35 2 -63 3 -63 1 0 -2 16 -10 35 -18 64 -27
184 -36 478 -36 386 0 587 -19 760 -70 167 -50 194 -58 230 -73 62 -26 42 -10
-35 29 -221 111 -301 171 -346 261 -30 59 -35 109 -37 388 -2 294 -10 346 -84
500 -58 122 -192 278 -306 355 -100 67 -155 102 -250 158 -116 68 -395 209
-580 294 -60 27 -132 61 -160 73 -93 44 -480 235 -530 263 -91 49 -249 153
-310 203 -96 78 -115 91 -115 79z"/>
<path d="M7395 3063 c-177 -154 -439 -305 -905 -521 -47 -22 -137 -63 -200
-93 -149 -69 -541 -267 -560 -283 -8 -7 -49 -32 -90 -56 -175 -102 -331 -241
-416 -370 -48 -72 -94 -187 -111 -274 -11 -59 -16 -154 -17 -346 -1 -262 -1
-266 -27 -327 -46 -108 -84 -140 -308 -260 -124 -67 -134 -79 -31 -37 86 35
311 91 418 105 48 6 269 14 492 19 333 6 416 10 465 24 33 9 63 20 67 24 4 4
-48 8 -115 8 -67 1 -165 9 -217 18 -186 31 -380 70 -380 76 0 3 57 20 128 38
134 33 309 54 599 72 199 12 315 26 358 45 29 13 29 13 -30 14 -88 2 -277 27
-380 51 -178 42 -447 90 -503 90 -76 1 -51 15 59 34 78 14 148 19 633 46 224
13 400 46 508 97 43 20 86 45 95 56 18 20 17 20 -27 14 -180 -26 -275 -29
-591 -17 -179 7 -383 11 -453 8 -70 -3 -124 -3 -119 2 11 10 306 83 488 120
216 45 469 107 577 141 178 58 384 175 418 239 9 16 0 15 -74 -10 -104 -36
-346 -83 -526 -104 -256 -30 -525 -66 -599 -81 -130 -27 -115 -14 64 55 61 23
146 55 190 72 44 17 105 41 136 54 31 13 60 24 63 24 4 0 51 18 104 41 435
184 674 337 793 511 21 31 39 60 39 64 0 3 -15 -5 -34 -19 -104 -80 -456 -218
-806 -316 -159 -44 -372 -107 -495 -146 -89 -28 -105 -31 -85 -15 14 11 28 20
32 20 3 0 42 22 85 48 43 26 114 67 158 91 97 53 408 239 488 292 367 244 580
447 662 634 14 32 25 59 23 60 -2 2 -21 -13 -43 -32z"/>
<path d="M3710 2855 c-30 -9 -73 -26 -95 -39 -22 -13 -56 -33 -75 -43 -19 -11
-116 -66 -215 -123 -99 -57 -198 -113 -220 -125 -61 -33 -386 -219 -421 -241
-42 -26 -106 -102 -135 -161 l-24 -48 0 -595 0 -595 28 -54 c37 -69 106 -138
182 -180 101 -56 136 -76 255 -146 63 -37 138 -80 165 -95 28 -15 79 -44 115
-65 36 -20 85 -49 110 -63 25 -13 50 -28 55 -32 20 -16 122 -72 195 -108 70
-34 81 -37 165 -37 101 0 134 12 290 108 44 27 98 59 120 71 22 13 103 60 180
106 77 45 194 114 260 153 66 38 136 80 156 93 19 13 39 24 43 24 13 0 79 61
108 99 58 79 59 91 56 747 l-3 599 -26 56 c-15 31 -42 71 -61 90 -27 27 -379
239 -641 388 -92 51 -234 135 -268 158 -92 60 -208 83 -299 58z m173 -89 c18
-7 111 -59 207 -116 96 -57 195 -114 220 -128 25 -14 57 -33 72 -43 14 -11 29
-19 32 -19 4 0 25 -12 49 -27 23 -15 56 -35 72 -44 17 -9 56 -31 88 -50 32
-19 70 -41 85 -49 142 -80 188 -124 212 -206 8 -28 10 -207 8 -619 l-3 -580
-24 -47 c-31 -60 -61 -84 -256 -198 -88 -51 -185 -108 -215 -126 -30 -19 -66
-39 -80 -46 -14 -6 -36 -20 -50 -29 -14 -9 -41 -26 -60 -36 -19 -11 -100 -58
-180 -105 -178 -103 -197 -111 -270 -111 -61 1 -109 19 -220 84 -30 18 -84 49
-120 69 -36 20 -82 46 -103 58 -21 12 -68 40 -105 61 -37 21 -127 72 -200 114
-73 43 -134 77 -137 77 -21 0 -199 120 -231 156 -75 82 -74 78 -74 678 1 484
2 536 19 583 29 86 77 131 236 219 28 15 107 60 178 101 70 40 130 73 132 73
3 0 29 16 59 35 30 19 57 35 59 35 2 0 60 32 128 71 311 178 312 179 381 179
32 0 73 -6 91 -14z"/>
<path d="M3639 2662 c-60 -31 -284 -159 -589 -335 -50 -29 -168 -96 -214 -121
-54 -29 -130 -115 -144 -163 -18 -59 -16 -1074 2 -1124 21 -61 75 -117 160
-166 44 -26 81 -43 83 -37 2 5 27 48 56 96 38 62 72 102 124 147 78 66 110
114 138 201 10 30 36 88 58 128 34 64 40 83 43 148 5 122 46 186 145 227 36
15 120 102 171 179 l29 43 -63 11 c-35 7 -75 17 -90 23 -23 8 -28 7 -42 -13
-8 -13 -45 -44 -83 -68 -90 -60 -175 -133 -212 -184 -33 -44 -91 -70 -121 -54
-19 10 -36 105 -25 140 6 19 58 40 99 40 10 0 78 60 157 139 114 113 146 140
177 146 20 4 134 9 252 10 118 1 239 6 268 10 48 7 52 10 52 34 0 85 45 151
115 171 62 17 111 -2 164 -63 43 -50 51 -74 27 -83 -9 -3 -17 -28 -21 -66 -6
-53 -12 -64 -47 -96 -32 -29 -39 -40 -34 -61 4 -14 13 -62 20 -106 13 -71 36
-151 51 -174 4 -7 29 -2 103 24 10 4 9 11 -4 32 -10 16 -24 33 -32 40 -29 24
-7 39 62 41 85 3 99 -14 88 -103 -7 -59 -7 -59 -62 -91 -30 -17 -84 -48 -118
-68 -72 -40 -92 -44 -114 -18 -16 18 -102 195 -123 252 l-13 35 -104 -103
c-57 -56 -109 -102 -115 -102 -6 0 -33 -18 -62 -41 -64 -51 -66 -73 -9 -114
109 -78 241 -223 257 -281 8 -28 7 -43 -5 -65 -17 -33 -31 -42 -98 -58 -27 -7
-61 -20 -75 -31 -23 -16 -83 -40 -231 -94 -57 -20 -141 -91 -133 -112 3 -8 1
-20 -4 -27 -6 -6 -15 -32 -22 -57 -10 -37 -9 -54 3 -93 13 -43 13 -49 -2 -64
-15 -15 -19 -13 -53 25 -24 28 -42 63 -54 104 -9 35 -31 91 -47 126 -45 94
-26 129 72 135 61 3 175 65 248 134 31 30 71 61 87 68 l30 13 -37 16 c-21 9
-48 16 -60 16 -13 0 -42 9 -65 19 l-42 19 -48 -51 c-26 -29 -84 -94 -128 -145
-50 -59 -109 -114 -157 -148 -43 -30 -78 -58 -78 -62 0 -4 -34 -42 -75 -86
-41 -43 -73 -81 -70 -85 2 -4 73 -47 157 -96 84 -49 218 -126 298 -173 233
-135 290 -140 465 -39 69 39 186 107 242 139 21 12 67 38 103 58 141 79 407
234 436 254 37 25 74 68 100 116 18 33 19 65 19 585 0 613 5 569 -72 653 -25
27 -94 74 -198 134 -88 50 -187 107 -220 126 -33 19 -78 45 -100 57 -38 21
-92 52 -227 132 -165 96 -206 113 -278 113 -59 0 -77 -5 -141 -38z"/>
</g>
</svg>
